<svg xmlns="http://www.w3.org/2000/svg" width="1600" height="900" viewBox="0 0 1600 900">
  <defs>
    <linearGradient id="g1" x1="0" y1="0" x2="1" y2="1">
      <stop offset="0%" stop-color="#4f46e5"/>
      <stop offset="50%" stop-color="#7c3aed"/>
      <stop offset="100%" stop-color="#38bdf8"/>
    </linearGradient>
    <radialGradient id="rg1" cx="50%" cy="0%" r="70%">
      <stop offset="0%" stop-color="rgba(124,58,237,0.35)"/>
      <stop offset="100%" stop-color="rgba(124,58,237,0)"/>
    </radialGradient>
    <filter id="blur1" x="-20%" y="-20%" width="140%" height="140%">
      <feGaussianBlur stdDeviation="40"/>
    </filter>
  </defs>
  <rect width="1600" height="900" fill="url(#g1)"/>
  <ellipse cx="220" cy="120" rx="220" ry="180" fill="#60a5fa" opacity="0.35" filter="url(#blur1)"/>
  <ellipse cx="1420" cy="280" rx="260" ry="200" fill="#a78bfa" opacity="0.35" filter="url(#blur1)"/>
  <rect x="200" y="120" width="1200" height="660" fill="url(#rg1)"/>
  <!-- Laptop with checklist -->
  <g transform="translate(450,240)">
    <rect x="0" y="0" width="700" height="420" rx="20" fill="white" opacity="0.9"/>
    <rect x="0" y="0" width="700" height="60" rx="20" fill="#f1f5f9"/>
    <circle cx="40" cy="30" r="8" fill="#22d3ee"/>
    <circle cx="70" cy="30" r="8" fill="#a78bfa"/>
    <circle cx="100" cy="30" r="8" fill="#60a5fa"/>
    <!-- checklist lines -->
    <g fill="none" stroke="#111827" stroke-width="3" stroke-linecap="round">
      <path d="M80 110 l20 20 l36 -36" stroke="#16a34a"/>
      <line x1="170" y1="126" x2="600" y2="126"/>
      <path d="M80 190 l20 20 l36 -36" stroke="#16a34a"/>
      <line x1="170" y1="206" x2="600" y2="206"/>
      <path d="M80 270 l20 20 l36 -36" stroke="#f59e0b"/>
      <line x1="170" y1="286" x2="600" y2="286"/>
      <path d="M80 350 l20 20 l36 -36" stroke="#ef4444"/>
      <line x1="170" y1="366" x2="600" y2="366"/>
    </g>
    <!-- base -->
    <rect x="120" y="440" width="460" height="16" rx="8" fill="#0f172a" opacity="0.15"/>
  </g>
</svg>
