<svg xmlns="http://www.w3.org/2000/svg" width="1600" height="900" viewBox="0 0 1600 900">
  <defs>
    <linearGradient id="gq" x1="0" y1="0" x2="1" y2="1">
      <stop offset="0%" stop-color="#7c3aed"/>
      <stop offset="100%" stop-color="#f472b6"/>
    </linearGradient>
    <filter id="blurQ" x="-20%" y="-20%" width="140%" height="140%">
      <feGaussianBlur stdDeviation="40"/>
    </filter>
  </defs>
  <rect width="1600" height="900" fill="url(#gq)"/>
  <ellipse cx="300" cy="680" rx="240" ry="180" fill="#a78bfa" opacity="0.3" filter="url(#blurQ)"/>
  <ellipse cx="1320" cy="240" rx="200" ry="160" fill="#f472b6" opacity="0.3" filter="url(#blurQ)"/>
  <!-- stacked books/pages -->
  <g transform="translate(450,220)">
    <rect x="0" y="0" width="700" height="420" rx="20" fill="white" opacity="0.92"/>
    <g transform="translate(80,80)" stroke="#0f172a" stroke-width="3" fill="none">
      <rect x="0" y="0" width="540" height="80" rx="10" fill="#f1f5f9"/>
      <line x1="30" y1="40" x2="220" y2="40"/>
      <circle cx="500" cy="40" r="12" fill="#a78bfa"/>
      <rect x="0" y="110" width="540" height="80" rx="10" fill="#f8fafc"/>
      <line x1="30" y1="150" x2="420" y2="150"/>
      <circle cx="500" cy="150" r="12" fill="#f472b6"/>
      <rect x="0" y="220" width="540" height="80" rx="10" fill="#eef2ff"/>
      <line x1="30" y1="260" x2="380" y2="260"/>
      <circle cx="500" cy="260" r="12" fill="#6366f1"/>
    </g>
  </g>
</svg>
