<svg xmlns="http://www.w3.org/2000/svg" width="1600" height="900" viewBox="0 0 1600 900">
  <defs>
    <linearGradient id="gs" x1="0" y1="0" x2="1" y2="1">
      <stop offset="0%" stop-color="#38bdf8"/>
      <stop offset="100%" stop-color="#6366f1"/>
    </linearGradient>
    <filter id="blurS" x="-20%" y="-20%" width="140%" height="140%">
      <feGaussianBlur stdDeviation="40"/>
    </filter>
  </defs>
  <rect width="1600" height="900" fill="url(#gs)"/>
  <ellipse cx="280" cy="700" rx="220" ry="170" fill="#93c5fd" opacity="0.28" filter="url(#blurS)"/>
  <ellipse cx="1320" cy="220" rx="220" ry="170" fill="#a5b4fc" opacity="0.28" filter="url(#blurS)"/>
  <!-- inbox tray + check -->
  <g transform="translate(480,260)">
    <rect x="0" y="120" width="640" height="240" rx="24" fill="white" opacity="0.92"/>
    <path d="M40 120 h560 a24 24 0 0 1 24 24 v60 h-160 a40 40 0 0 0 -40 40 h-208 a40 40 0 0 0 -40 -40 h-160 v-60 a24 24 0 0 1 24 -24z"
          fill="#f8fafc" stroke="#e2e8f0" stroke-width="2"/>
    <path d="M140 240 l50 50 l100 -110" fill="none" stroke="#10b981" stroke-width="12" stroke-linecap="round" stroke-linejoin="round"/>
  </g>
</svg>
